<?xml version="1.0" encoding="UTF-8"?>
<svg id="Layer_1" xmlns="http://www.w3.org/2000/svg" version="1.1" viewBox="0 0 283.46 283.46">
  <!-- Generator: Adobe Illustrator 29.5.1, SVG Export Plug-In . SVG Version: 2.1.0 Build 141)  -->
  <defs>
    <style>
      .st0 {
        fill: #ff8672;
      }

      .st1 {
        fill: #270089;
      }
    </style>
  </defs>
  <path class="st1" d="M245.56,188.77c15.32-14.07,23.04-32.57,22.95-55.01-.25-60.06-57.33-108.69-127.23-108.4-69.9.29-126.57,49.39-126.32,109.46.09,23.21,8.51,42.12,25,56.22-6.88,5.62-10.79,13.2-10.75,20.96.07,16.7,17.86,30.21,39.67,30.12,3.25-.01,6.44-.35,9.55-.95,2.37,5.58,7.02,9.76,13.65,12.15,5.57,2.01,11.07,3.02,16.33,3,9.27-.04,16.84-3.24,22.69-7.24,5.84-3.99,9.96-8.78,12.33-11.99,5.75,5.86,19.39,17.52,36.69,17.44,2.63-.01,5.25-.29,7.85-.84,2.61-.55,5.19-1.37,7.73-2.45,5.48-2.33,9.59-6.1,12.07-10.92,3.59.79,7.31,1.2,11.11,1.18,21.81-.09,39.5-13.75,39.43-30.46-.04-8.58-4.67-16.64-12.75-22.27ZM218.86,234.76c-3.08,0-6.06-.3-8.88-.87.13-.66.24-1.32.32-2.01,1.39-11.92-4.91-26.32-14.65-33.49-.61-.45-1.35-.69-2.11-.69-1.11,0-2.17.55-2.83,1.44-.56.76-.79,1.7-.65,2.63.14.93.64,1.76,1.4,2.32,7.73,5.68,12.91,17.53,11.81,26.97-.51,4.45-2.73,10.44-10.34,13.67-4.28,1.83-8.68,2.76-13.07,2.78-19.48.08-33.49-17.59-34.07-18.34-.67-.85-1.73-1.36-2.83-1.36-.08,0-.17.01-.27.01-1.19.11-2.25.8-2.81,1.86-.43.8-10.63,19.5-31.32,19.59-4.51.02-9.24-.86-14.08-2.6-5.55-2-9-5.46-10.24-10.27-2.71-10.45,4.89-25.25,11.16-32.42.62-.71.92-1.62.86-2.56s-.49-1.8-1.2-2.42c-.65-.57-1.48-.88-2.34-.88-1.01.01-1.98.45-2.65,1.21-6.45,7.39-14.68,22.27-13.29,35.3-2.54.46-5.18.74-7.92.75-18.12.08-32.86-10.41-32.91-23.41-.03-7.59,4.94-14.36,12.69-18.7,1.43-.8,1.53-2.83.2-3.8-16.87-12.37-27.04-30.23-27.14-54.68-.24-56.44,53.31-102.41,119.61-102.69,66.29-.27,120.22,45.25,120.46,101.69.09,23.79-9.38,41.42-25.34,53.88-1.33,1.03-1.14,3.12.38,3.84,8.86,4.18,14.72,11.37,14.76,19.56.05,13.01-14.59,23.61-32.71,23.69Z"/>
  <path class="st1" d="M92.97,90.61c-2.05-.42-4.14-.63-6.21-.62-14.19.05-26.62,10.3-29.55,24.36-1.7,8.12-.17,16.34,4.31,23.13,4.48,6.8,11.44,11.45,19.58,13.09,1.98.4,4,.6,6.01.59,14.46-.06,27.04-10.3,29.92-24.34,3.39-16.55-7.41-32.8-24.06-36.21ZM114.83,126.37c-3.07,15.03-18.23,25.05-33.28,22.01-15.63-3.16-25.41-17.98-22.15-33.58,3.19-15.3,17.96-25.11,33.12-22,15.55,3.19,25.48,18.12,22.31,33.57Z"/>
  <path class="st1" d="M202.25,90.15c-2.04-.42-4.13-.63-6.2-.62-14.19.06-26.62,10.31-29.56,24.36-1.7,8.13-.17,16.34,4.31,23.13,4.48,6.8,11.44,11.45,19.59,13.1,1.97.4,3.99.59,6.01.58,14.46-.06,27.04-10.29,29.91-24.33,3.39-16.56-7.4-32.8-24.06-36.22ZM224.12,125.92c-3.08,15.02-18.23,25.04-33.29,22-15.62-3.15-25.41-17.98-22.15-33.57,3.2-15.3,17.97-25.11,33.12-22.01,15.56,3.19,25.48,18.13,22.32,33.58Z"/>
  <g>
    <path class="st1" d="M81.46,117.12c1.72-8.25,9.52-13.57,17.48-11.94,8.17,1.68,13.35,9.69,11.65,18.02-1.66,8.1-9.66,13.53-17.57,11.94-8.21-1.66-13.32-9.62-11.56-18.02Z"/>
    <path class="st1" d="M174.95,116.73c1.72-8.25,9.52-13.57,17.48-11.94,8.17,1.68,13.35,9.69,11.65,18.02-1.66,8.1-9.66,13.53-17.57,11.94-8.21-1.66-13.32-9.62-11.56-18.02Z"/>
  </g>
  <g>
    <g>
      <g>
        <circle class="st0" cx="217.78" cy="148.74" r="3.9"/>
        <circle class="st0" cx="207.28" cy="163.23" r="3.9"/>
        <circle class="st0" cx="226.02" cy="164.1" r="3.9"/>
      </g>
      <g>
        <circle class="st0" cx="68.38" cy="155.21" r="3.9"/>
        <circle class="st0" cx="77.53" cy="169.61" r="3.9"/>
        <circle class="st0" cx="57.55" cy="168.93" r="3.9"/>
      </g>
    </g>
    <path class="st0" d="M150.76,130.14c-.8,4.34-5.02,7.58-9.47,7.29-4.41-.29-7.96-3.66-8.47-7.82-.32-2.69.34-4.13,3.41-3.97,3.55.18,7.13.29,10.66-.02,3.77-.33,4.1,1.72,3.86,4.53Z"/>
  </g>
</svg>