<svg width="24" height="24" viewBox="0 0 24 24" fill="none" xmlns="http://www.w3.org/2000/svg">
<path d="M11.793 21.2402C6.27539 21.2402 1.7832 16.748 1.7832 11.2305C1.7832 5.71289 6.27539 1.2207 11.793 1.2207C17.3105 1.2207 21.8027 5.71289 21.8027 11.2305C21.8027 16.748 17.3105 21.2402 11.793 21.2402ZM11.793 2.68555C7.07617 2.68555 3.24805 6.52344 3.24805 11.2305C3.24805 15.9375 7.07617 19.7754 11.793 19.7754C16.5098 19.7754 20.3379 15.9375 20.3379 11.2305C20.3379 6.52344 16.5098 2.68555 11.793 2.68555Z" fill="#250188"/>
<path d="M22.0469 22.2168C21.8614 22.2168 21.6758 22.1484 21.5294 22.002L19.5762 20.0488C19.293 19.7656 19.293 19.2969 19.5762 19.0137C19.8594 18.7305 20.3282 18.7305 20.6114 19.0137L22.5645 20.9668C22.8477 21.25 22.8477 21.7188 22.5645 22.002C22.418 22.1484 22.2325 22.2168 22.0469 22.2168Z" fill="#250188"/>
</svg>
