<svg width="45" height="45" viewBox="0 0 45 45" fill="none" xmlns="http://www.w3.org/2000/svg">
<path fill-rule="evenodd" clip-rule="evenodd" d="M22.5 0C10.0736 0 0 10.0736 0 22.5C0 34.9264 10.0736 45 22.5 45C34.9264 45 45 34.9264 45 22.5C45 10.0736 34.9264 0 22.5 0ZM26.885 11.25C26.885 11.5843 26.9162 11.9136 26.9738 12.2323C27.2505 13.7054 28.1223 14.9696 29.3332 15.7583C30.1788 16.3121 31.181 16.6308 32.2614 16.6308L32.2613 17.4927V20.4965C30.2569 20.4965 28.3987 19.854 26.8849 18.7674V26.6296C26.8849 30.5528 23.6906 33.75 19.7706 33.75C18.2569 33.75 16.8475 33.2693 15.694 32.4596C13.8567 31.1692 12.6562 29.0378 12.6562 26.6296C12.6562 22.7011 15.8455 19.5093 19.7654 19.5144C20.0943 19.5144 20.4126 19.5405 20.7258 19.5824V20.4965L20.7144 20.502L20.7258 20.5018V23.5317C20.4231 23.4377 20.0994 23.3802 19.7654 23.3802C17.975 23.3802 16.5188 24.8378 16.5188 26.6296C16.5188 27.8782 17.2286 28.9595 18.2621 29.5081C18.2718 29.5213 18.2816 29.5344 18.2914 29.5475L18.3087 29.5703C18.2968 29.5474 18.2831 29.5249 18.2674 29.5028C18.7215 29.7431 19.233 29.879 19.7759 29.879C21.5244 29.879 22.9546 28.4842 23.0172 26.7498L23.0225 11.25H26.885Z" fill="white"/>
</svg>
